<svg xmlns="http://www.w3.org/2000/svg" xmlns:xlink="http://www.w3.org/1999/xlink" preserveAspectRatio="xMidYMid" width="287" height="148" viewBox="0 0 287 148">
  <defs>
    <style>
      .cls-1 {
        fill: #aaa;
      }

      .cls-1, .cls-2 {
        fill-rule: evenodd;
      }

      .cls-2 {
        fill: #fee3ce;
      }
    </style>
  </defs>
  <g>
    <path d="M0.000,-10.000 L239.000,-10.000 L287.000,148.000 L0.000,148.000 L0.000,-10.000 Z" class="cls-1"/>
    <path d="M189.997,101.000 L187.885,101.000 L187.885,49.715 C187.885,43.865 183.113,39.107 177.247,39.107 C171.382,39.107 166.610,43.865 166.610,49.715 L166.610,101.000 L164.497,101.000 L164.497,49.715 C164.497,42.704 170.217,37.000 177.247,37.000 C184.277,37.000 189.997,42.704 189.997,49.715 L189.997,101.000 ZM149.668,101.000 L147.556,101.000 L147.556,49.989 L149.668,49.989 L149.668,101.000 ZM132.315,101.000 L130.202,101.000 L130.202,38.864 L132.315,38.864 L132.315,101.000 ZM114.960,101.000 L112.848,101.000 L112.848,49.989 L114.960,49.989 L114.960,101.000 ZM97.605,101.000 L95.493,101.000 L95.493,49.715 C95.493,43.865 90.721,39.107 84.856,39.107 C82.125,39.107 79.631,40.138 77.746,41.831 C79.469,43.999 80.499,46.739 80.499,49.715 L80.499,101.000 L78.387,101.000 L78.387,49.715 C78.387,47.358 77.612,45.177 76.303,43.415 C74.994,45.177 74.218,47.358 74.218,49.715 L74.218,101.000 L72.106,101.000 L72.106,49.715 C72.106,46.739 73.136,43.999 74.860,41.831 C72.974,40.138 70.480,39.107 67.749,39.107 C61.884,39.107 57.112,43.865 57.112,49.715 L57.112,101.000 L55.000,101.000 L55.000,49.715 C55.000,42.704 60.719,37.000 67.749,37.000 C71.037,37.000 74.039,38.248 76.303,40.294 C78.566,38.248 81.568,37.000 84.856,37.000 C91.886,37.000 97.605,42.704 97.605,49.715 L97.605,101.000 ZM149.668,41.748 L147.556,41.748 L147.556,39.110 L149.668,39.110 L149.668,41.748 ZM114.960,41.748 L112.848,41.748 L112.848,39.110 L114.960,39.110 L114.960,41.748 Z" class="cls-2"/>
  </g>
</svg>
