<svg xmlns="http://www.w3.org/2000/svg" xmlns:xlink="http://www.w3.org/1999/xlink" preserveAspectRatio="xMidYMid" width="69.994" height="19.781" viewBox="0 0 138 39">
  <defs>
    <style>
      .cls-1 {
        fill: #aaa;
        fill-rule: evenodd;
      }
    </style>
  </defs>
  <path d="M135.915,4.574 C134.475,4.515 133.549,3.815 133.449,2.382 C133.346,0.916 134.208,0.074 135.647,-0.003 C137.013,-0.076 137.856,0.703 138.002,2.037 C138.163,3.516 137.287,4.267 135.915,4.574 ZM136.174,37.291 C135.264,37.301 134.573,37.308 133.591,37.319 C133.507,30.280 133.425,23.370 133.335,15.849 C126.069,23.194 119.129,30.210 111.833,37.584 C111.750,30.265 111.673,23.492 111.588,16.083 C104.304,23.451 97.395,30.438 90.117,37.800 C90.021,30.518 89.932,23.738 89.835,16.402 C82.541,23.780 75.666,30.735 68.463,38.022 C68.370,30.709 68.283,23.942 68.189,16.570 C60.915,23.926 54.040,30.877 46.738,38.260 C46.638,30.935 46.545,24.178 46.444,16.819 C39.220,24.115 32.355,31.049 25.491,37.983 C25.323,37.942 25.156,37.901 24.989,37.860 C24.893,31.121 24.798,24.382 24.696,17.144 C21.834,20.029 19.291,22.581 16.761,25.145 C12.458,29.507 8.229,33.944 3.801,38.176 C3.048,38.895 1.451,38.747 0.245,39.000 C0.163,38.811 0.081,38.622 -0.001,38.434 C8.927,29.384 17.855,20.334 27.226,10.835 C27.330,18.114 27.427,24.867 27.532,32.210 C34.766,24.898 41.669,17.920 48.969,10.541 C49.059,17.856 49.142,24.622 49.232,31.999 C56.465,24.685 63.372,17.701 70.708,10.283 C70.800,17.603 70.884,24.398 70.976,31.772 C78.228,24.434 85.099,17.482 92.380,10.115 C92.464,17.452 92.541,24.211 92.625,31.616 C99.898,24.255 106.774,17.297 114.098,9.885 C114.183,17.240 114.262,24.003 114.347,31.321 C121.609,23.968 128.492,16.999 135.825,9.573 C135.945,19.130 136.059,28.125 136.174,37.291 ZM70.794,5.259 C69.321,5.246 68.394,4.552 68.257,3.128 C68.127,1.780 68.864,0.902 70.227,0.734 C71.683,0.554 72.643,1.289 72.829,2.703 C73.020,4.148 72.167,4.958 70.794,5.259 Z" class="cls-1"/>
</svg>
